PERFORMER "The KoxVI Experience"
TITLE "GENESIS - Spot The Pigeon (Extended Play) - 1977"
REM SRC "https://www.youtube.com/watch?v=MF5GZDMT8GE"
REM COMMENT "Generated by cuetube *.*.* - Mon Jun 17 2019 17:39:05 GMT+0200 (heure d’été d’Europe centrale)"
FILE "https://www.youtube.com/watch?v=MF5GZDMT8GE" MP3
  TRACK 01 MP3
    TITLE "Match of the day"
    INDEX 01 00:00:00
  TRACK 02 MP3
    TITLE Pigeons
    INDEX 01 03:23:00
  TRACK 03 MP3
    TITLE "Inside and out"
    INDEX 01 06:37:00
